HIERARCHY
ROOT hip
{
  OFFSET 0 0 0
  CHANNELS 6 Xposition Yposition Zposition Zrotation Yrotation Xrotation
  JOINT abdomen
  {
    OFFSET 0 20.6881 -0.73152
    CHANNELS 3 Zrotation Xrotation Yrotation
    JOINT chest
    {
      OFFSET 0 11.7043 -0.48768
      CHANNELS 3 Zrotation Xrotation Yrotation
      JOINT neck
      {
        OFFSET 0 22.1894 -2.19456
        CHANNELS 3 Zrotation Xrotation Yrotation
        JOINT head
        {
          OFFSET -0.24384 7.07133 1.2192
          CHANNELS 3 Zrotation Xrotation Yrotation
          JOINT leftEye
          {
            OFFSET 4.14528 8.04674 8.04672
            CHANNELS 3 Zrotation Xrotation Yrotation
            End Site
            {
              OFFSET 1 0 0
            }
          }
          JOINT rightEye
          {
            OFFSET -3.6576 8.04674 8.04672
            CHANNELS 3 Zrotation Xrotation Yrotation
            End Site
            {
              OFFSET 1 0 0
            }
          }
        }
      }
      JOINT rCollar
      {
        OFFSET -2.68224 19.2634 -4.8768
        CHANNELS 3 Zrotation Xrotation Yrotation
        JOINT rShldr
        {
          OFFSET -8.77824 -1.95073 1.46304
          CHANNELS 3 Zrotation Xrotation Yrotation
          JOINT rForeArm
          {
            OFFSET -28.1742 -1.7115 0.48768
            CHANNELS 3 Zrotation Xrotation Yrotation
            JOINT rHand
            {
              OFFSET -22.5879 0.773209 7.07136
              CHANNELS 3 Zrotation Xrotation Yrotation
              JOINT rThumb1
              {
                OFFSET -1.2192 -0.487915 3.41376
                CHANNELS 3 Zrotation Xrotation Yrotation
                JOINT rThumb2
                {
                  OFFSET -3.37035 -0.52449 3.41376
                  CHANNELS 3 Zrotation Xrotation Yrotation
                  End Site
                  {
                    OFFSET -1.78271 -1.18214 1.43049
                  }
                }
              }
              JOINT rIndex1
              {
                OFFSET -7.75947 0.938293 5.60832
                CHANNELS 3 Zrotation Xrotation Yrotation
                JOINT rIndex2
                {
                  OFFSET -2.54057 -0.884171 1.56538
                  CHANNELS 3 Zrotation Xrotation Yrotation
                  End Site
                  {
                    OFFSET -1.62519 -0.234802 1.16502
                  }
                }
              }
              JOINT rMid1
              {
                OFFSET -8.24714 1.18213 3.41376
                CHANNELS 3 Zrotation Xrotation Yrotation
                JOINT rMid2
                {
                  OFFSET -3.10165 -0.590103 1.0647
                  CHANNELS 3 Zrotation Xrotation Yrotation
                  End Site
                  {
                    OFFSET -2.48547 -0.328903 0.83742
                  }
                }
              }
              JOINT rRing1
              {
                OFFSET -8.82822 0.546677 1.51678
                CHANNELS 3 Zrotation Xrotation Yrotation
                JOINT rRing2
                {
                  OFFSET -2.60934 -0.819778 -0.0198488
                  CHANNELS 3 Zrotation Xrotation Yrotation
                  End Site
                  {
                    OFFSET -2.33842 -0.294052 0.168128
                  }
                }
              }
              JOINT rPinky1
              {
                OFFSET -8.27202 -0.0477905 -0.4584
                CHANNELS 3 Zrotation Xrotation Yrotation
                JOINT rPinky2
                {
                  OFFSET -1.82734 -0.647385 -0.700984
                  CHANNELS 3 Zrotation Xrotation Yrotation
                  End Site
                  {
                    OFFSET -1.69225 -0.51767 -0.607171
                  }
                }
              }
            }
          }
        }
      }
      JOINT lCollar
      {
        OFFSET 2.68224 19.2634 -4.8768
        CHANNELS 3 Zrotation Xrotation Yrotation
        JOINT lShldr
        {
          OFFSET 8.77824 -1.95073 1.46304
          CHANNELS 3 Zrotation Xrotation Yrotation
          JOINT lForeArm
          {
            OFFSET 28.1742 -1.7115 0.48768
            CHANNELS 3 Zrotation Xrotation Yrotation
            JOINT lHand
            {
              OFFSET 22.5879 0.773209 7.07136
              CHANNELS 3 Zrotation Xrotation Yrotation
              JOINT lThumb1
              {
                OFFSET 1.2192 -0.487915 3.41376
                CHANNELS 3 Zrotation Xrotation Yrotation
                JOINT lThumb2
                {
                  OFFSET 3.37035 -0.52449 3.41376
                  CHANNELS 3 Zrotation Xrotation Yrotation
                  End Site
                  {
                    OFFSET 1.78271 -1.18214 1.43049
                  }
                }
              }
              JOINT lIndex1
              {
                OFFSET 7.75947 0.938293 5.60832
                CHANNELS 3 Zrotation Xrotation Yrotation
                JOINT lIndex2
                {
                  OFFSET 2.54057 -0.884171 1.56538
                  CHANNELS 3 Zrotation Xrotation Yrotation
                  End Site
                  {
                    OFFSET 1.62519 -0.234802 1.16502
                  }
                }
              }
              JOINT lMid1
              {
                OFFSET 8.24714 1.18213 3.41376
                CHANNELS 3 Zrotation Xrotation Yrotation
                JOINT lMid2
                {
                  OFFSET 3.10165 -0.590103 1.0647
                  CHANNELS 3 Zrotation Xrotation Yrotation
                  End Site
                  {
                    OFFSET 2.48547 -0.328903 0.83742
                  }
                }
              }
              JOINT lRing1
              {
                OFFSET 8.82822 0.546677 1.51678
                CHANNELS 3 Zrotation Xrotation Yrotation
                JOINT lRing2
                {
                  OFFSET 2.60934 -0.819778 -0.0198488
                  CHANNELS 3 Zrotation Xrotation Yrotation
                  End Site
                  {
                    OFFSET 2.33842 -0.294052 0.168128
                  }
                }
              }
              JOINT lPinky1
              {
                OFFSET 8.27202 -0.0477905 -0.4584
                CHANNELS 3 Zrotation Xrotation Yrotation
                JOINT lPinky2
                {
                  OFFSET 1.82734 -0.647385 -0.700984
                  CHANNELS 3 Zrotation Xrotation Yrotation
                  End Site
                  {
                    OFFSET 1.69225 -0.51767 -0.607171
                  }
                }
              }
            }
          }
        }
      }
    }
  }
  JOINT rButtock
  {
    OFFSET -8.77824 4.35084 1.2192
    CHANNELS 3 Zrotation Xrotation Yrotation
    JOINT rThigh
    {
      OFFSET 0 -1.70687 -2.19456
      CHANNELS 3 Zrotation Xrotation Yrotation
      JOINT rShin
      {
        OFFSET 0 -36.8199 0.73152
        CHANNELS 3 Zrotation Xrotation Yrotation
        JOINT rFoot
        {
          OFFSET 0.73152 -45.1104 -5.12064
          CHANNELS 3 Zrotation Xrotation Yrotation
          End Site
          {
            OFFSET -1.1221 -3.69964 12.103
          }
        }
      }
    }
  }
  JOINT lButtock
  {
    OFFSET 8.77824 4.35084 1.2192
    CHANNELS 3 Zrotation Xrotation Yrotation
    JOINT lThigh
    {
      OFFSET 0 -1.70687 -2.19456
      CHANNELS 3 Zrotation Xrotation Yrotation
      JOINT lShin
      {
        OFFSET 0 -36.8199 0.73152
        CHANNELS 3 Zrotation Xrotation Yrotation
        JOINT lFoot
        {
          OFFSET -0.73152 -45.1104 -5.12064
          CHANNELS 3 Zrotation Xrotation Yrotation
          End Site
          {
            OFFSET 1.1221 -3.69964 12.103
          }
        }
      }
    }
  }
}
MOTION
Frames:	8
Frame Time:	0.00833333
-3.73804 107.184 35.6952 -173.128 -5.541 -167.538 9.36915 13.3373 4.72523 -0.278927 -5.9038 1.31602 -3.97611 -1.51576 -4.18187 3.76764 -19.5645 -6.65852 -0.0 0.0 0.0 -0.0 0.0 0.0 1.14539e-13 2.57625e-13 1.25781e-13 91.3114 42.0966 -19.9111 -28.4253 -36.3315 77.5659 -0.0142773 -3.40935 -0.479725 -1.22369e-09 -3.78782e-09 2.54638e-09 -2.12208e-09 -6.51898e-09 4.3949e-09 -1.22369e-09 -3.78784e-09 2.54638e-09 7.73091 5.47488 0.417314 -1.2237e-09 -3.78781e-09 2.54638e-09 2.90554 0.965183 0.102902 -1.22369e-09 -3.78781e-09 2.54638e-09 10.2786 0.731801 0.0259123 -1.2237e-09 -3.78782e-09 2.54639e-09 2.22167 -0.733487 -0.20892 1.14469e-13 2.57625e-13 1.25433e-13 -103.296 44.659 38.5895 28.415 -36.6705 -78.1372 0.162731 -11.422 1.62709 -2.75086e-10 -1.96109e-09 -3.00366e-09 -4.48003e-10 -3.3428e-09 -5.19449e-09 -2.75111e-10 -1.9611e-09 -3.00364e-09 -7.73091 5.47488 -0.417314 -2.75103e-10 -1.9611e-09 -3.00366e-09 -2.90554 0.965183 -0.102902 -2.7509e-10 -1.96108e-09 -3.00366e-09 -10.2786 0.731801 -0.0259123 -2.75084e-10 -1.96108e-09 -3.00366e-09 -2.22167 -0.733487 0.20892 -2.03217e-16 0.0 -3.88251e-19 10.909 -12.6779 -4.33009 -0.449978 48.2799 1.36418 -0.767038 9.38665 -1.50761 2.03217e-16 0.0 3.88251e-19 7.32972 -60.0323 1.21047 0.776331 53.6675 -1.01129 -1.15686 -1.07409 -11.0051
-3.78959 107.384 33.169 -173.268 -5.4678 -167.836 8.91568 13.2555 4.33469 -0.216227 -5.84034 1.20966 -3.87351 -1.57633 -4.05857 3.86958 -19.3326 -6.41888 -0.0 0.0 0.0 -0.0 0.0 0.0 1.13442e-13 3.35797e-13 8.95622e-14 91.8086 41.526 -20.7324 -28.4397 -35.599 76.3079 -0.0114268 -3.11947 -0.438824 -1.53066e-09 -5.02441e-09 3.59516e-09 -2.65379e-09 -8.65442e-09 6.20705e-09 -1.53065e-09 -5.02443e-09 3.59515e-09 7.73091 5.47488 0.417314 -1.53066e-09 -5.0244e-09 3.59515e-09 2.90554 0.965183 0.102902 -1.53065e-09 -5.0244e-09 3.59516e-09 10.2786 0.731801 0.0259123 -1.53066e-09 -5.0244e-09 3.59517e-09 2.22167 -0.733487 -0.20892 1.13317e-13 3.35797e-13 8.92205e-14 -103.029 44.8474 37.4823 28.4083 -36.8649 -78.4603 0.166217 -11.5366 1.64389 -1.85092e-10 -2.61859e-09 -3.74863e-09 -2.85038e-10 -4.45997e-09 -6.4821e-09 -1.85115e-10 -2.6186e-09 -3.74862e-09 -7.73091 5.47488 -0.417314 -1.85107e-10 -2.6186e-09 -3.74864e-09 -2.90554 0.965183 -0.102902 -1.85097e-10 -2.61858e-09 -3.74863e-09 -10.2786 0.731801 -0.0259123 -1.85088e-10 -2.61858e-09 -3.74864e-09 -2.22167 -0.733487 0.20892 -2.03217e-16 0.0 -3.88251e-19 10.2414 -13.9402 -4.92599 -0.563301 51.3642 1.42946 -0.761586 8.91729 -2.01454 2.03217e-16 0.0 3.88251e-19 6.43658 -58.1411 0.497969 0.748728 52.8802 -0.955244 -1.06391 -0.472097 -11.2517
-3.87607 107.507 30.6622 -173.553 -5.3739 -168.151 8.29152 13.2463 3.8826 -0.0946288 -5.80706 1.08723 -3.72396 -1.60024 -3.90537 3.91624 -19.1821 -6.14737 -0.0 0.0 0.0 -0.0 0.0 0.0 1.11414e-13 4.16255e-13 7.55692e-15 92.2642 40.843 -21.5755 -28.4248 -34.7818 74.9702 -0.00767214 -2.63263 -0.370216 -1.72544e-09 -5.66699e-09 4.58255e-09 -2.99037e-09 -9.76597e-09 7.913e-09 -1.72544e-09 -5.66701e-09 4.58255e-09 7.73091 5.47488 0.417314 -1.72544e-09 -5.66699e-09 4.58255e-09 2.90554 0.965183 0.102902 -1.72544e-09 -5.66699e-09 4.58255e-09 10.2786 0.731801 0.0259123 -1.72545e-09 -5.66699e-09 4.58256e-09 2.22167 -0.733487 -0.20892 1.11233e-13 4.16255e-13 7.24632e-15 -102.682 45.1794 36.2021 28.3956 -37.1115 -78.8821 0.167699 -11.5856 1.65108 -1.41123e-13 -3.20683e-09 -4.28918e-09 4.07898e-11 -5.45537e-09 -7.41578e-09 -1.59206e-13 -3.20685e-09 -4.28917e-09 -7.73091 5.47488 -0.417314 -1.51934e-13 -3.20683e-09 -4.28918e-09 -2.90554 0.965183 -0.102902 -1.47507e-13 -3.20682e-09 -4.28918e-09 -10.2786 0.731801 -0.0259123 -1.35156e-13 -3.20683e-09 -4.28919e-09 -2.22167 -0.733487 0.20892 -2.03217e-16 0.0 -3.88251e-19 9.28876 -15.5106 -5.77956 -0.715632 54.9331 1.53674 -0.779633 7.8055 -2.88476 2.03217e-16 0.0 3.88251e-19 5.44679 -56.1653 -0.156941 0.736274 52.4777 -0.915774 -0.988845 0.136828 -11.6537
-3.99344 107.559 28.1697 -173.968 -5.2599 -168.478 7.53463 13.2687 3.38929 0.0582354 -5.80755 0.95261 -3.54745 -1.58808 -3.73227 3.94747 -19.0784 -5.8493 -0.0 0.0 0.0 -0.0 0.0 0.0 1.08486e-13 4.53974e-13 -8.35195e-14 92.6592 40.0963 -22.4346 -28.3808 -33.9172 73.577 -0.00492113 -2.11112 -0.29681 -1.72599e-09 -5.67501e-09 5.01982e-09 -2.99005e-09 -9.78307e-09 8.6684e-09 -1.72598e-09 -5.67501e-09 5.01982e-09 7.73091 5.47488 0.417314 -1.72599e-09 -5.67501e-09 5.01982e-09 2.90554 0.965183 0.102902 -1.72598e-09 -5.67501e-09 5.01983e-09 10.2786 0.731801 0.0259123 -1.72599e-09 -5.67501e-09 5.01984e-09 2.22167 -0.733487 -0.20892 1.08258e-13 4.53974e-13 -8.37928e-14 -102.228 45.6091 34.7688 28.3779 -37.393 -79.3673 0.167172 -11.5698 1.64874 1.76645e-10 -2.98853e-09 -4.22224e-09 3.47272e-10 -5.06979e-09 -7.29921e-09 1.76632e-10 -2.98854e-09 -4.22222e-09 -7.73091 5.47488 -0.417314 1.76639e-10 -2.98851e-09 -4.22223e-09 -2.90554 0.965183 -0.102902 1.76637e-10 -2.98851e-09 -4.22224e-09 -10.2786 0.731801 -0.0259123 1.76653e-10 -2.98852e-09 -4.22225e-09 -2.22167 -0.733487 0.20892 -2.03217e-16 0.0 -3.88251e-19 8.09658 -17.3039 -6.78133 -0.911445 58.6654 1.68912 -0.851762 6.46618 -3.92912 2.03217e-16 0.0 3.88251e-19 4.43434 -54.1042 -0.691987 0.730291 52.2591 -0.885227 -0.963153 0.47148 -12.054
-4.13658 107.544 25.691 -174.493 -5.1275 -168.806 6.68179 13.2817 2.87538 0.214653 -5.84539 0.809674 -3.36404 -1.54044 -3.54928 4.00257 -18.9867 -5.53021 -0.0 0.0 0.0 -0.0 0.0 0.0 1.04693e-13 4.03929e-13 -1.46952e-13 92.9786 39.3339 -23.306 -28.3141 -33.0438 72.1413 -0.00361799 -1.71722 -0.241412 -1.45023e-09 -5.00788e-09 4.41824e-09 -2.51109e-09 -8.63518e-09 7.62891e-09 -1.45023e-09 -5.00788e-09 4.41824e-09 7.73091 5.47488 0.417314 -1.45023e-09 -5.00788e-09 4.41823e-09 2.90554 0.965183 0.102902 -1.45023e-09 -5.00788e-09 4.41824e-09 10.2786 0.731801 0.0259123 -1.45024e-09 -5.00788e-09 4.41825e-09 2.22167 -0.733487 -0.20892 1.04436e-13 4.0393e-13 -1.472e-13 -101.646 46.0907 33.205 28.3576 -37.693 -79.8789 0.1647 -11.4897 1.637 2.42145e-10 -1.22638e-09 -3.14474e-09 4.52201e-10 -2.04403e-09 -5.43604e-09 2.42137e-10 -1.22638e-09 -3.14472e-09 -7.73091 5.47488 -0.417314 2.42143e-10 -1.22635e-09 -3.14473e-09 -2.90554 0.965183 -0.102902 2.42136e-10 -1.22635e-09 -3.14474e-09 -10.2786 0.731801 -0.0259123 2.42155e-10 -1.22637e-09 -3.14474e-09 -2.22167 -0.733487 0.20892 -2.03217e-16 0.0 -3.88251e-19 6.72581 -19.237 -7.81887 -1.15156 62.2397 1.88579 -0.971413 5.31458 -4.96298 2.03217e-16 0.0 3.88251e-19 3.45712 -51.9582 -1.05775 0.723531 52.0234 -0.857215 -1.02977 0.253059 -12.2944
-4.30784 107.466 23.2259 -175.101 -4.9803 -169.114 5.72026 13.3123 2.33877 0.36694 -5.93203 0.656962 -3.17019 -1.43479 -3.34967 4.09745 -18.9259 -5.17526 -0.0 0.0 0.0 -0.0 0.0 0.0 1.00242e-13 1.96671e-13 -1.72639e-13 93.2175 38.5648 -24.1887 -28.2236 -32.133 70.6206 -0.00293925 -1.48321 -0.208509 -6.65455e-10 -3.08364e-09 1.95003e-09 -1.15015e-09 -5.31841e-09 3.3643e-09 -6.65449e-10 -3.08364e-09 1.95003e-09 7.73091 5.47488 0.417314 -6.65453e-10 -3.08364e-09 1.95002e-09 2.90554 0.965183 0.102902 -6.65447e-10 -3.08364e-09 1.95003e-09 10.2786 0.731801 0.0259123 -6.65457e-10 -3.08364e-09 1.95003e-09 2.22167 -0.733487 -0.20892 9.9975e-14 1.96673e-13 -1.72876e-13 -100.92 46.6356 31.5009 28.3327 -38.0127 -80.423 0.159305 -11.3089 1.6105 1.33477e-10 3.30261e-09 -1.67834e-10 2.39064e-10 5.71273e-09 -2.89841e-10 1.33473e-10 3.3026e-09 -1.67823e-10 -7.73091 5.47488 -0.417314 1.33477e-10 3.30264e-09 -1.67831e-10 -2.90554 0.965183 -0.102902 1.33469e-10 3.30263e-09 -1.67835e-10 -10.2786 0.731801 -0.0259123 1.33489e-10 3.30262e-09 -1.67844e-10 -2.22167 -0.733487 0.20892 -2.03217e-16 0.0 -3.88251e-19 5.12599 -21.2914 -8.92541 -1.45815 65.6739 2.14478 -1.12285 4.44335 -6.01875 2.03217e-16 0.0 3.88251e-19 2.48051 -49.6703 -1.25104 0.716243 51.7689 -0.830095 -1.2243 -0.700179 -12.321
-4.50742 107.329 20.7718 -175.784 -4.8288 -169.395 4.63908 13.3694 1.77072 0.529346 -6.06206 0.493176 -2.95914 -1.27832 -3.13127 4.21028 -18.9049 -4.78659 -0.0 0.0 0.0 -0.0 0.0 0.0 9.50484e-14 -1.2464e-13 -1.80267e-13 93.3807 37.7652 -25.0837 -28.0945 -31.1545 69.0319 -0.00238157 -1.32621 -0.18643 5.14304e-10 -1.14309e-10 -1.89166e-09 8.95321e-10 -1.98729e-10 -3.27341e-09 5.1431e-10 -1.14309e-10 -1.89167e-09 7.73091 5.47488 0.417314 5.14308e-10 -1.14313e-10 -1.89167e-09 2.90554 0.965183 0.102902 5.14314e-10 -1.1431e-10 -1.89167e-09 10.2786 0.731801 0.0259123 5.14302e-10 -1.14311e-10 -1.89166e-09 2.22167 -0.733487 -0.20892 9.47879e-14 -1.24637e-13 -1.80496e-13 -100.042 47.2517 29.6304 28.2997 -38.3564 -81.019 0.151586 -11.0391 1.57108 -8.2566e-11 9.86307e-09 4.23305e-09 -1.7232e-10 1.69439e-08 7.31776e-09 -8.25682e-11 9.86307e-09 4.23306e-09 -7.73091 5.47488 -0.417314 -8.25654e-11 9.8631e-09 4.23305e-09 -2.90554 0.965183 -0.102902 -8.2573e-11 9.86308e-09 4.23305e-09 -10.2786 0.731801 -0.0259123 -8.25541e-11 9.86308e-09 4.23304e-09 -2.22167 -0.733487 0.20892 -2.03217e-16 0.0 -3.88251e-19 3.24861 -23.5007 -10.163 -1.87028 69.1044 2.50627 -1.31613 3.63805 -7.16862 2.03217e-16 0.0 3.88251e-19 1.44961 -47.2612 -1.32981 0.711112 51.5854 -0.806875 -1.51496 -2.20398 -12.2283
-4.73227 107.136 18.3313 -176.546 -4.6803 -169.622 3.47459 13.385 1.18268 0.707184 -6.21375 0.322444 -2.74548 -1.11623 -2.91095 4.32236 -18.8743 -4.39572 -0.0 0.0 0.0 -0.0 0.0 0.0 8.87081e-14 -4.36111e-13 -1.77797e-13 93.4703 36.934 -25.9911 -27.9261 -30.1542 67.4568 -0.00195744 -1.23576 -0.173706 1.65094e-09 2.7497e-09 -5.61424e-09 2.86591e-09 4.73956e-09 -9.70523e-09 1.65095e-09 2.7497e-09 -5.61424e-09 7.73091 5.47488 0.417314 1.65095e-09 2.7497e-09 -5.61425e-09 2.90554 0.965183 0.102902 1.65096e-09 2.7497e-09 -5.61425e-09 10.2786 0.731801 0.0259123 1.65094e-09 2.7497e-09 -5.61424e-09 2.22167 -0.733487 -0.20892 8.84665e-14 -4.36108e-13 -1.78029e-13 -99.0067 47.8877 27.5988 28.2596 -38.7146 -81.6473 0.143813 -10.7539 1.52951 -3.14594e-10 1.62548e-08 8.41457e-09 -6.09661e-10 2.78876e-08 1.4546e-08 -3.14595e-10 1.62548e-08 8.41458e-09 -7.73091 5.47488 -0.417314 -3.14593e-10 1.62549e-08 8.41457e-09 -2.90554 0.965183 -0.102902 -3.146e-10 1.62548e-08 8.41457e-09 -10.2786 0.731801 -0.0259123 -3.14582e-10 1.62548e-08 8.41457e-09 -2.22167 -0.733487 0.20892 -2.03217e-16 0.0 -3.88251e-19 1.18078 -25.8649 -11.4576 -2.41193 72.388 3.00051 -1.5463 2.85245 -8.29004 2.03217e-16 0.0 3.88251e-19 0.387789 -44.8468 -1.33839 0.705367 51.4097 -0.788827 -1.84532 -3.98772 -12.0805
